<?xml version="1.0" encoding="utf-8"?>
<!-- Generator: Adobe Illustrator 24.3.0, SVG Export Plug-In . SVG Version: 6.00 Build 0)  -->
<svg version="1.1" id="Layer_1" xmlns="http://www.w3.org/2000/svg" xmlns:xlink="http://www.w3.org/1999/xlink" x="0px" y="0px"
	 viewBox="0 0 692.95 420.43" style="enable-background:new 0 0 692.95 420.43;" xml:space="preserve">
<style type="text/css">
	.st0{fill:#EF413D;}
	.st1{fill:#A6CE39;}
	.st2{fill:#16BECF;}
</style>
<path class="st0" d="M201.25,267.06c-21.47,0-40.84-13.55-48.2-33.71c-1.99-5.45,0.82-11.48,6.26-13.46
	c5.45-2,11.48,0.82,13.47,6.26c4.35,11.91,15.79,19.91,28.48,19.91c16.71,0,30.3-13.59,30.3-30.3c0-12.12-7.18-23.03-18.3-27.84
	l-30.28-12.36c-15.16-6.46-24.96-21.27-24.96-37.75c0-22.62,18.4-41.02,41.02-41.02c12.96,0,25.3,6.23,33.01,16.67
	c3.44,4.67,2.46,11.24-2.21,14.68c-4.66,3.45-11.24,2.46-14.69-2.21c-3.82-5.18-9.7-8.14-16.12-8.14
	c-11.04,0-20.02,8.98-20.02,20.02c0,8.02,4.76,15.23,12.12,18.4l30.32,12.37c18.9,8.1,31.11,26.62,31.11,47.17
	C252.55,244.04,229.54,267.06,201.25,267.06"/>
<path class="st0" d="M488.17,246.53c-16.61,0-30.12-13.51-30.12-30.12s13.51-30.12,30.12-30.12c16.61,0,30.12,13.51,30.12,30.12
	S504.77,246.53,488.17,246.53 M488.17,165.04c-28.33,0-51.37,23.05-51.38,51.37v108.47c0,5.84,4.73,10.58,10.58,10.58
	s10.58-4.73,10.58-10.58v-67.02c8.49,6.21,18.92,9.92,30.22,9.92c28.33,0,51.38-23.05,51.38-51.38S516.5,165.04,488.17,165.04"/>
<path class="st1" d="M263.18,205.15c0,22.5,18.24,40.75,40.75,40.75v0c-16.63,0-30.12-13.48-30.12-30.12s13.48-30.12,30.12-30.12
	c16.63,0,30.11,13.48,30.12,30.11l0,0c0-11.77,3.97-22.6,10.63-31.26l0,0c-9.39-12.22-24.14-20.1-40.75-20.1l-4.17,0.21
	C279.21,166.71,263.18,184.06,263.18,205.15z"/>
<path class="st2" d="M426.17,226.41c0-21.28-16.34-38.7-37.15-40.52c14.94,1.78,26.52,14.48,26.52,29.9
	c0,16.63-13.48,30.12-30.12,30.12c-16.63,0-30.11-13.48-30.12-30.11l0,0c0,11.77-3.97,22.6-10.63,31.26l0,0
	c9.39,12.22,24.14,20.1,40.75,20.1l4.17-0.21C410.14,264.85,426.17,247.51,426.17,226.41z"/>
<path class="st0" d="M385.42,164.41c-16.6,0-31.35,7.88-40.75,20.1c-6.66,8.66-10.63,19.5-10.63,31.26c0,0,0,0.01,0,0.01
	s0,0.01,0,0.01c-0.01,16.63-13.49,30.11-30.12,30.11v0c-22.5,0-40.75-18.24-40.75-40.75c0-21.1,16.03-38.45,36.57-40.54l4.17-0.21
	c-28.37,0-51.37,23-51.37,51.37c0,0.03,0,0.07,0,0.1c0,0,0,0.01,0,0.01c0,0.42,0.02,0.84,0.03,1.25c0.73,27.69,23.46,50,51.33,50
	c0,0,0.01,0,0.01,0c16.6,0,31.35-7.88,40.75-20.1c6.66-8.66,10.63-19.5,10.63-31.26c0,0,0-0.01,0-0.01s0-0.01,0-0.01
	c0.01-16.63,13.49-30.11,30.12-30.11c0,0,0,0,0,0c0,0,0,0,0,0c0.03,0,1.55,0.05,2.76,0.14c0.28,0.03,0.56,0.04,0.84,0.08
	c0,0,0,0,0,0c20.81,1.83,37.15,19.24,37.15,40.52c0,21.1-16.03,38.45-36.57,40.54l-4.17,0.21c28.37,0,51.37-23,51.37-51.37
	S413.79,164.41,385.42,164.41z"/>
</svg>
